<mxfile host="app.diagrams.net" agent="Mozilla/5.0 (Windows NT 10.0; Win64; x64) AppleWebKit/537.36 (KHTML, like Gecko) Chrome/128.0.0.0 Safari/537.36 OPR/114.0.0.0" version="24.9.3">
  <diagram id="C5RBs43oDa-KdzZeNtuy" name="Page-1">
    <mxGraphModel dx="1062" dy="586" grid="1" gridSize="10" guides="1" tooltips="1" connect="1" arrows="1" fold="1" page="1" pageScale="1" pageWidth="827" pageHeight="1169" math="0" shadow="0">
      <root>
        <mxCell id="WIyWlLk6GJQsqaUBKTNV-0" />
        <mxCell id="WIyWlLk6GJQsqaUBKTNV-1" parent="WIyWlLk6GJQsqaUBKTNV-0" />
        <mxCell id="Br24ICafhy1wDNoyXPe8-2" value="" style="edgeStyle=orthogonalEdgeStyle;rounded=0;orthogonalLoop=1;jettySize=auto;html=1;" edge="1" parent="WIyWlLk6GJQsqaUBKTNV-1" source="Br24ICafhy1wDNoyXPe8-0" target="Br24ICafhy1wDNoyXPe8-1">
          <mxGeometry relative="1" as="geometry" />
        </mxCell>
        <mxCell id="Br24ICafhy1wDNoyXPe8-0" value="Start" style="ellipse;whiteSpace=wrap;html=1;" vertex="1" parent="WIyWlLk6GJQsqaUBKTNV-1">
          <mxGeometry x="340" y="40" width="120" height="80" as="geometry" />
        </mxCell>
        <mxCell id="Br24ICafhy1wDNoyXPe8-78" value="" style="edgeStyle=orthogonalEdgeStyle;rounded=0;orthogonalLoop=1;jettySize=auto;html=1;" edge="1" parent="WIyWlLk6GJQsqaUBKTNV-1" source="Br24ICafhy1wDNoyXPe8-1" target="Br24ICafhy1wDNoyXPe8-64">
          <mxGeometry relative="1" as="geometry" />
        </mxCell>
        <mxCell id="Br24ICafhy1wDNoyXPe8-1" value="&lt;div style=&quot;font-family: Consolas, &amp;quot;Courier New&amp;quot;, monospace; line-height: 22px; white-space: pre;&quot;&gt;sum, minusone, n&lt;/div&gt;" style="shape=internalStorage;whiteSpace=wrap;html=1;backgroundOutline=1;dx=10;dy=10;" vertex="1" parent="WIyWlLk6GJQsqaUBKTNV-1">
          <mxGeometry x="305" y="160" width="190" height="80" as="geometry" />
        </mxCell>
        <mxCell id="Br24ICafhy1wDNoyXPe8-67" value="" style="edgeStyle=orthogonalEdgeStyle;rounded=0;orthogonalLoop=1;jettySize=auto;html=1;" edge="1" parent="WIyWlLk6GJQsqaUBKTNV-1" source="Br24ICafhy1wDNoyXPe8-64" target="Br24ICafhy1wDNoyXPe8-66">
          <mxGeometry relative="1" as="geometry" />
        </mxCell>
        <mxCell id="Br24ICafhy1wDNoyXPe8-64" value="&lt;div style=&quot;line-height: 22px; white-space: pre;&quot;&gt;&lt;font face=&quot;Consolas, Courier New, monospace&quot;&gt;sum = 0&lt;/font&gt;&lt;/div&gt;&lt;div style=&quot;line-height: 22px; white-space: pre;&quot;&gt;&lt;font face=&quot;Consolas, Courier New, monospace&quot;&gt;minusone = -1.0&lt;/font&gt;&lt;/div&gt;" style="rounded=0;whiteSpace=wrap;html=1;" vertex="1" parent="WIyWlLk6GJQsqaUBKTNV-1">
          <mxGeometry x="295" y="290" width="210" height="80" as="geometry" />
        </mxCell>
        <mxCell id="Br24ICafhy1wDNoyXPe8-80" value="" style="edgeStyle=orthogonalEdgeStyle;rounded=0;orthogonalLoop=1;jettySize=auto;html=1;" edge="1" parent="WIyWlLk6GJQsqaUBKTNV-1" source="Br24ICafhy1wDNoyXPe8-66" target="Br24ICafhy1wDNoyXPe8-79">
          <mxGeometry relative="1" as="geometry" />
        </mxCell>
        <mxCell id="Br24ICafhy1wDNoyXPe8-66" value="Output: &quot;Number of elements&quot;" style="shape=parallelogram;perimeter=parallelogramPerimeter;whiteSpace=wrap;html=1;fixedSize=1;" vertex="1" parent="WIyWlLk6GJQsqaUBKTNV-1">
          <mxGeometry x="295" y="430" width="210" height="60" as="geometry" />
        </mxCell>
        <mxCell id="Br24ICafhy1wDNoyXPe8-68" value="End" style="ellipse;whiteSpace=wrap;html=1;" vertex="1" parent="WIyWlLk6GJQsqaUBKTNV-1">
          <mxGeometry x="240" y="960" width="120" height="80" as="geometry" />
        </mxCell>
        <mxCell id="Br24ICafhy1wDNoyXPe8-95" value="" style="edgeStyle=orthogonalEdgeStyle;rounded=0;orthogonalLoop=1;jettySize=auto;html=1;" edge="1" parent="WIyWlLk6GJQsqaUBKTNV-1" source="Br24ICafhy1wDNoyXPe8-79" target="Br24ICafhy1wDNoyXPe8-81">
          <mxGeometry relative="1" as="geometry" />
        </mxCell>
        <mxCell id="Br24ICafhy1wDNoyXPe8-79" value="Input: n" style="shape=parallelogram;perimeter=parallelogramPerimeter;whiteSpace=wrap;html=1;fixedSize=1;" vertex="1" parent="WIyWlLk6GJQsqaUBKTNV-1">
          <mxGeometry x="352.5" y="540" width="95" height="60" as="geometry" />
        </mxCell>
        <mxCell id="Br24ICafhy1wDNoyXPe8-83" style="edgeStyle=orthogonalEdgeStyle;rounded=0;orthogonalLoop=1;jettySize=auto;html=1;entryX=0.5;entryY=0;entryDx=0;entryDy=0;exitX=1;exitY=0.5;exitDx=0;exitDy=0;" edge="1" parent="WIyWlLk6GJQsqaUBKTNV-1" source="Br24ICafhy1wDNoyXPe8-85" target="Br24ICafhy1wDNoyXPe8-82">
          <mxGeometry relative="1" as="geometry" />
        </mxCell>
        <mxCell id="Br24ICafhy1wDNoyXPe8-90" style="edgeStyle=orthogonalEdgeStyle;rounded=0;orthogonalLoop=1;jettySize=auto;html=1;entryX=0.5;entryY=0;entryDx=0;entryDy=0;" edge="1" parent="WIyWlLk6GJQsqaUBKTNV-1" source="Br24ICafhy1wDNoyXPe8-92" target="Br24ICafhy1wDNoyXPe8-89">
          <mxGeometry relative="1" as="geometry">
            <mxPoint x="400.0000000000002" y="665" as="sourcePoint" />
          </mxGeometry>
        </mxCell>
        <mxCell id="Br24ICafhy1wDNoyXPe8-81" value="i = 0; i &amp;lt; n; i++" style="shape=hexagon;perimeter=hexagonPerimeter2;whiteSpace=wrap;html=1;fixedSize=1;" vertex="1" parent="WIyWlLk6GJQsqaUBKTNV-1">
          <mxGeometry x="340" y="640" width="120" height="80" as="geometry" />
        </mxCell>
        <mxCell id="Br24ICafhy1wDNoyXPe8-86" style="edgeStyle=orthogonalEdgeStyle;rounded=0;orthogonalLoop=1;jettySize=auto;html=1;entryX=0.625;entryY=1;entryDx=0;entryDy=0;exitX=0;exitY=0.25;exitDx=0;exitDy=0;" edge="1" parent="WIyWlLk6GJQsqaUBKTNV-1" source="Br24ICafhy1wDNoyXPe8-82" target="Br24ICafhy1wDNoyXPe8-81">
          <mxGeometry relative="1" as="geometry" />
        </mxCell>
        <mxCell id="Br24ICafhy1wDNoyXPe8-82" value="&lt;div style=&quot;line-height: 22px; white-space: pre;&quot;&gt;&lt;font style=&quot;&quot;&gt;sum += pow(minusone, i)*&lt;/font&gt;&lt;/div&gt;&lt;div style=&quot;line-height: 22px; white-space: pre;&quot;&gt;&lt;span style=&quot;background-color: initial;&quot;&gt;(1.0/(2.0*i + 1.0))&lt;/span&gt;&lt;/div&gt;" style="rounded=0;whiteSpace=wrap;html=1;" vertex="1" parent="WIyWlLk6GJQsqaUBKTNV-1">
          <mxGeometry x="440" y="760" width="180" height="60" as="geometry" />
        </mxCell>
        <mxCell id="Br24ICafhy1wDNoyXPe8-84" value="" style="edgeStyle=orthogonalEdgeStyle;rounded=0;orthogonalLoop=1;jettySize=auto;html=1;entryX=0;entryY=0.5;entryDx=0;entryDy=0;exitX=1;exitY=0.5;exitDx=0;exitDy=0;endArrow=none;endFill=0;" edge="1" parent="WIyWlLk6GJQsqaUBKTNV-1" source="Br24ICafhy1wDNoyXPe8-81" target="Br24ICafhy1wDNoyXPe8-85">
          <mxGeometry relative="1" as="geometry">
            <mxPoint x="460" y="680" as="sourcePoint" />
            <mxPoint x="530" y="760" as="targetPoint" />
          </mxGeometry>
        </mxCell>
        <mxCell id="Br24ICafhy1wDNoyXPe8-85" value="True" style="text;html=1;align=center;verticalAlign=middle;whiteSpace=wrap;rounded=0;" vertex="1" parent="WIyWlLk6GJQsqaUBKTNV-1">
          <mxGeometry x="500" y="665" width="60" height="30" as="geometry" />
        </mxCell>
        <mxCell id="Br24ICafhy1wDNoyXPe8-94" value="" style="edgeStyle=orthogonalEdgeStyle;rounded=0;orthogonalLoop=1;jettySize=auto;html=1;" edge="1" parent="WIyWlLk6GJQsqaUBKTNV-1" source="Br24ICafhy1wDNoyXPe8-87" target="Br24ICafhy1wDNoyXPe8-68">
          <mxGeometry relative="1" as="geometry" />
        </mxCell>
        <mxCell id="Br24ICafhy1wDNoyXPe8-87" value="Output: S, S-п/4" style="shape=parallelogram;perimeter=parallelogramPerimeter;whiteSpace=wrap;html=1;fixedSize=1;" vertex="1" parent="WIyWlLk6GJQsqaUBKTNV-1">
          <mxGeometry x="240" y="860" width="120" height="60" as="geometry" />
        </mxCell>
        <mxCell id="Br24ICafhy1wDNoyXPe8-93" value="" style="edgeStyle=orthogonalEdgeStyle;rounded=0;orthogonalLoop=1;jettySize=auto;html=1;" edge="1" parent="WIyWlLk6GJQsqaUBKTNV-1" source="Br24ICafhy1wDNoyXPe8-89" target="Br24ICafhy1wDNoyXPe8-87">
          <mxGeometry relative="1" as="geometry" />
        </mxCell>
        <mxCell id="Br24ICafhy1wDNoyXPe8-89" value="S - п/4" style="rounded=0;whiteSpace=wrap;html=1;" vertex="1" parent="WIyWlLk6GJQsqaUBKTNV-1">
          <mxGeometry x="240" y="765" width="120" height="60" as="geometry" />
        </mxCell>
        <mxCell id="Br24ICafhy1wDNoyXPe8-91" value="" style="edgeStyle=orthogonalEdgeStyle;rounded=0;orthogonalLoop=1;jettySize=auto;html=1;entryX=0.5;entryY=0;entryDx=0;entryDy=0;exitX=0;exitY=0.5;exitDx=0;exitDy=0;endArrow=none;endFill=0;" edge="1" parent="WIyWlLk6GJQsqaUBKTNV-1" source="Br24ICafhy1wDNoyXPe8-81" target="Br24ICafhy1wDNoyXPe8-92">
          <mxGeometry relative="1" as="geometry">
            <mxPoint x="400.0000000000002" y="665" as="sourcePoint" />
            <mxPoint x="300" y="765" as="targetPoint" />
          </mxGeometry>
        </mxCell>
        <mxCell id="Br24ICafhy1wDNoyXPe8-92" value="False" style="text;html=1;align=center;verticalAlign=middle;whiteSpace=wrap;rounded=0;" vertex="1" parent="WIyWlLk6GJQsqaUBKTNV-1">
          <mxGeometry x="270" y="710" width="60" height="30" as="geometry" />
        </mxCell>
      </root>
    </mxGraphModel>
  </diagram>
</mxfile>
